<?xml version="1.0" encoding="UTF-8"?>
<!DOCTYPE svg PUBLIC "-//W3C//DTD SVG 1.1//EN" "http://www.w3.org/Graphics/SVG/1.1/DTD/svg11.dtd">
<svg xmlns="http://www.w3.org/2000/svg" version="1.1" width="500px" height="500px" style="shape-rendering:geometricPrecision; text-rendering:geometricPrecision; image-rendering:optimizeQuality; fill-rule:evenodd; clip-rule:evenodd" xmlns:xlink="http://www.w3.org/1999/xlink">
<g><path style="opacity:1" fill="#ec5e62" d="M 212.5,50.5 C 211.732,51.2625 211.232,52.2625 211,53.5C 210.667,53.1667 210.333,52.8333 210,52.5C 209.505,54.4727 209.338,56.4727 209.5,58.5C 208.293,50.9975 207.293,43.3309 206.5,35.5C 207.5,35.5 208.5,35.5 209.5,35.5C 210.343,40.5384 211.343,45.5384 212.5,50.5 Z"/></g>
<g><path style="opacity:0.965" fill="#e9575a" d="M 260.5,103.5 C 259.833,103.5 259.167,103.5 258.5,103.5C 260.591,85.7706 262.758,68.1039 265,50.5C 263.628,51.9101 262.795,53.5767 262.5,55.5C 261.604,56.5063 260.938,56.5063 260.5,55.5C 261.571,48.6988 264.238,42.6988 268.5,37.5C 266.692,59.5049 264.025,81.5049 260.5,103.5 Z"/></g>
<g><path style="opacity:0.62" fill="#ee5b5a" d="M 292.5,75.5 C 291.596,74.791 291.263,73.791 291.5,72.5C 292.261,68.2901 293.261,64.1234 294.5,60C 294.43,59.2352 294.097,58.7352 293.5,58.5C 292.957,58.44 292.624,58.1067 292.5,57.5C 293.5,56.8333 294.5,56.1667 295.5,55.5C 294.754,54.2638 294.421,52.9305 294.5,51.5C 295.719,46.7335 297.719,42.4002 300.5,38.5C 300.833,39.3333 301.167,40.1667 301.5,41C 298.862,52.7219 295.862,64.2219 292.5,75.5 Z"/></g>
<g><path style="opacity:0.78" fill="#ec585e" d="M 178.5,53.5 C 178.5,54.8333 178.5,56.1667 178.5,57.5C 177.778,57.0825 177.278,56.4158 177,55.5C 176.833,56 176.667,56.5 176.5,57C 178.148,62.1072 179.482,67.2739 180.5,72.5C 180.631,73.2389 180.464,73.9056 180,74.5C 179.722,73.5842 179.222,72.9175 178.5,72.5C 174.684,60.2415 171.017,47.9082 167.5,35.5C 168.035,33.7295 168.869,33.3961 170,34.5C 173.394,40.6186 176.228,46.9519 178.5,53.5 Z"/></g>
<g><path style="opacity:0.91" fill="#f15256" d="M 212.5,50.5 C 213.657,53.2727 214.324,56.2727 214.5,59.5C 214.5,61.5 214.5,63.5 214.5,65.5C 213.839,64.2825 213.172,62.9492 212.5,61.5C 212.167,61.6667 211.833,61.8333 211.5,62C 212.451,65.0567 212.784,68.2234 212.5,71.5C 212.631,72.2389 212.464,72.9056 212,73.5C 211.722,72.5842 211.222,71.9175 210.5,71.5C 209.8,67.2022 209.467,62.8689 209.5,58.5C 209.338,56.4727 209.505,54.4727 210,52.5C 210.333,52.8333 210.667,53.1667 211,53.5C 211.232,52.2625 211.732,51.2625 212.5,50.5 Z"/></g>
<g><path style="opacity:0.796" fill="#e05a5e" d="M 178.5,53.5 C 189.731,77.1728 200.398,101.173 210.5,125.5C 209.662,125.842 209.328,126.508 209.5,127.5C 199.185,104.244 188.851,80.9105 178.5,57.5C 178.5,56.1667 178.5,54.8333 178.5,53.5 Z"/></g>
<g><path style="opacity:0.635" fill="#e35a5c" d="M 214.5,59.5 C 219.926,78.2043 224.592,97.2043 228.5,116.5C 228.158,117.338 227.492,117.672 226.5,117.5C 222.5,100.165 218.5,82.8319 214.5,65.5C 214.5,63.5 214.5,61.5 214.5,59.5 Z"/></g>
<g><path style="opacity:0.941" fill="#e9585b" d="M 382.5,80.5 C 381.5,80.5 380.5,80.5 379.5,80.5C 380.969,78.8947 380.635,78.3947 378.5,79C 375.621,81.3852 372.621,83.5518 369.5,85.5C 368.833,85.1667 368.167,84.8333 367.5,84.5C 375.814,77.6971 384.314,71.0304 393,64.5C 393.667,65.5 393.667,66.5 393,67.5C 389.287,71.7077 385.787,76.041 382.5,80.5 Z"/></g>
<g><path style="opacity:0.89" fill="#e4585b" d="M 379.5,80.5 C 380.5,80.5 381.5,80.5 382.5,80.5C 365.224,102.775 347.224,124.442 328.5,145.5C 327.662,145.158 327.328,144.492 327.5,143.5C 344.863,122.475 362.197,101.475 379.5,80.5 Z"/></g>
<g><path style="opacity:0.969" fill="#e45358" d="M 294.5,51.5 C 294.421,52.9305 294.754,54.2638 295.5,55.5C 294.5,56.1667 293.5,56.8333 292.5,57.5C 292.624,58.1067 292.957,58.44 293.5,58.5C 287.537,73.4081 281.204,88.0748 274.5,102.5C 273.662,102.158 273.328,101.492 273.5,100.5C 279.713,83.7504 286.713,67.417 294.5,51.5 Z"/></g>
<g><path style="opacity:0.961" fill="#e2575c" d="M 178.5,72.5 C 179.222,72.9175 179.722,73.5842 180,74.5C 180.464,73.9056 180.631,73.2389 180.5,72.5C 183.87,82.2859 186.87,92.2859 189.5,102.5C 189.737,103.791 189.404,104.791 188.5,105.5C 184.797,94.7147 181.463,83.7147 178.5,72.5 Z"/></g>
<g><path style="opacity:0.902" fill="#e45659" d="M 291.5,72.5 C 291.263,73.791 291.596,74.791 292.5,75.5C 289.277,90.1526 285.277,104.486 280.5,118.5C 280.672,117.508 280.338,116.842 279.5,116.5C 283.209,101.654 287.209,86.9872 291.5,72.5 Z"/></g>
<g><path style="opacity:0.733" fill="#e35a5d" d="M 260.5,55.5 C 260.938,56.5063 261.604,56.5063 262.5,55.5C 253.874,88.6576 246.541,121.991 240.5,155.5C 240.737,154.209 240.404,153.209 239.5,152.5C 244.35,119.574 251.35,87.2411 260.5,55.5 Z"/></g>
<g><path style="opacity:0.816" fill="#e3575a" d="M 210.5,71.5 C 211.222,71.9175 211.722,72.5842 212,73.5C 212.464,72.9056 212.631,72.2389 212.5,71.5C 215.2,93.4434 218.2,115.443 221.5,137.5C 220.883,137.611 220.383,137.944 220,138.5C 219.768,137.263 219.268,136.263 218.5,135.5C 215.507,114.222 212.84,92.8891 210.5,71.5 Z"/></g>
<g><path style="opacity:0.843" fill="#e6595b" d="M 367.5,84.5 C 368.167,84.8333 368.833,85.1667 369.5,85.5C 362.814,91.5155 355.814,97.1822 348.5,102.5C 347.662,102.158 347.328,101.492 347.5,100.5C 353.854,94.8171 360.52,89.4838 367.5,84.5 Z"/></g>
<g><path style="opacity:0.957" fill="#e4595e" d="M 189.5,102.5 C 192.307,110.033 194.974,117.7 197.5,125.5C 196.5,125.5 195.5,125.5 194.5,125.5C 192.303,118.908 190.303,112.241 188.5,105.5C 189.404,104.791 189.737,103.791 189.5,102.5 Z"/></g>
<g><path style="opacity:0.945" fill="#e4585a" d="M 347.5,100.5 C 347.328,101.492 347.662,102.158 348.5,102.5C 339.819,110.512 330.819,118.179 321.5,125.5C 320.508,125.672 319.842,125.338 319.5,124.5C 328.514,116.155 337.847,108.155 347.5,100.5 Z"/></g>
<g><path style="opacity:0.98" fill="#e8565b" d="M 108.5,106.5 C 109.167,107.833 109.833,109.167 110.5,110.5C 109.167,110.833 109.167,111.167 110.5,111.5C 113.5,115.5 116.5,119.5 119.5,123.5C 119.158,124.338 118.492,124.672 117.5,124.5C 112.238,118.064 106.738,111.73 101,105.5C 100.409,104.517 100.743,103.85 102,103.5C 104.253,104.377 106.419,105.377 108.5,106.5 Z"/></g>
<g><path style="opacity:0.971" fill="#de5859" d="M 258.5,103.5 C 259.167,103.5 259.833,103.5 260.5,103.5C 259.229,114.692 257.563,125.692 255.5,136.5C 255.784,134.585 255.451,132.919 254.5,131.5C 255.372,122.062 256.705,112.728 258.5,103.5 Z"/></g>
<g><path style="opacity:0.925" fill="#e9565a" d="M 279.5,116.5 C 280.338,116.842 280.672,117.508 280.5,118.5C 278.3,127.635 275.633,136.635 272.5,145.5C 271.604,146.506 270.938,146.506 270.5,145.5C 272.928,135.556 275.928,125.89 279.5,116.5 Z"/></g>
<g><path style="opacity:0.996" fill="#e15c60" d="M 228.5,116.5 C 231.101,124.913 233.101,133.579 234.5,142.5C 233.596,143.209 233.263,144.209 233.5,145.5C 230.929,136.337 228.596,127.004 226.5,117.5C 227.492,117.672 228.158,117.338 228.5,116.5 Z"/></g>
<g><path style="opacity:0.965" fill="#e2595b" d="M 273.5,100.5 C 273.328,101.492 273.662,102.158 274.5,102.5C 268.012,119.975 261.345,137.309 254.5,154.5C 254.125,152.302 253.458,150.302 252.5,148.5C 252.607,142.752 253.274,137.085 254.5,131.5C 255.451,132.919 255.784,134.585 255.5,136.5C 255.336,139.187 255.503,141.854 256,144.5C 261.371,129.535 267.204,114.868 273.5,100.5 Z"/></g>
<g><path style="opacity:0.773" fill="#df595e" d="M 108.5,106.5 C 118.185,112.676 127.519,119.343 136.5,126.5C 136.158,127.338 135.492,127.672 134.5,127.5C 126.754,121.749 118.754,116.415 110.5,111.5C 110.5,111.167 110.5,110.833 110.5,110.5C 109.833,109.167 109.167,107.833 108.5,106.5 Z"/></g>
<g><path style="opacity:0.945" fill="#de5c64" d="M 319.5,124.5 C 319.842,125.338 320.508,125.672 321.5,125.5C 313.526,133.139 305.526,140.806 297.5,148.5C 297.672,147.508 297.338,146.842 296.5,146.5C 303.933,138.945 311.6,131.612 319.5,124.5 Z"/></g>
<g><path style="opacity:1" fill="#e55b5e" d="M 194.5,125.5 C 195.5,125.5 196.5,125.5 197.5,125.5C 201.588,139.679 206.254,153.679 211.5,167.5C 210.778,166.449 209.778,165.782 208.5,165.5C 203.243,152.397 198.577,139.064 194.5,125.5 Z"/></g>
<g><path style="opacity:0.459" fill="#e35253" d="M 210.5,125.5 C 213.407,131.69 216.24,138.023 219,144.5C 219.483,143.552 219.649,142.552 219.5,141.5C 220.147,142.274 220.48,143.274 220.5,144.5C 220.66,146.355 219.993,147.688 218.5,148.5C 214.935,141.823 211.935,134.823 209.5,127.5C 209.328,126.508 209.662,125.842 210.5,125.5 Z"/></g>
<g><path style="opacity:0.925" fill="#df5b5f" d="M 136.5,126.5 C 147.577,135.035 158.244,144.035 168.5,153.5C 167.833,153.833 167.167,154.167 166.5,154.5C 155.808,145.47 145.142,136.47 134.5,127.5C 135.492,127.672 136.158,127.338 136.5,126.5 Z"/></g>
<g><path style="opacity:0.894" fill="#e0575b" d="M 119.5,123.5 C 127.179,131.848 134.513,140.515 141.5,149.5C 140.798,150.116 139.798,150.116 138.5,149.5C 131.124,141.459 124.124,133.126 117.5,124.5C 118.492,124.672 119.158,124.338 119.5,123.5 Z"/></g>
<g><path style="opacity:0.78" fill="#e3595c" d="M 218.5,135.5 C 219.268,136.263 219.768,137.263 220,138.5C 220.383,137.944 220.883,137.611 221.5,137.5C 221.967,144.938 223.134,152.272 225,159.5C 229.978,172.442 234.644,185.442 239,198.5C 239.232,197.263 239.732,196.263 240.5,195.5C 239.298,199.048 238.631,202.715 238.5,206.5C 232.453,187.027 225.786,167.694 218.5,148.5C 219.993,147.688 220.66,146.355 220.5,144.5C 220.48,143.274 220.147,142.274 219.5,141.5C 218.659,139.621 218.325,137.621 218.5,135.5 Z"/></g>
<g><path style="opacity:0.957" fill="#e95b5d" d="M 377.5,173.5 C 377.158,172.662 376.492,172.328 375.5,172.5C 380.949,167.917 386.283,163.084 391.5,158C 389.494,158.15 387.494,158.65 385.5,159.5C 384.508,159.672 383.842,159.338 383.5,158.5C 390.438,154.695 397.438,150.861 404.5,147C 405.5,146.333 406.5,146.333 407.5,147C 397.926,156.413 387.926,165.247 377.5,173.5 Z"/></g>
<g><path style="opacity:0.98" fill="#e45657" d="M 252.5,148.5 C 253.458,150.302 254.125,152.302 254.5,154.5C 251.667,164.986 248.667,175.32 245.5,185.5C 245.672,184.508 245.338,183.842 244.5,183.5C 247.627,171.82 250.294,160.153 252.5,148.5 Z"/></g>
<g><path style="opacity:0.902" fill="#e15657" d="M 270.5,145.5 C 270.938,146.506 271.604,146.506 272.5,145.5C 267.709,161.556 261.376,176.889 253.5,191.5C 253.672,190.508 253.338,189.842 252.5,189.5C 259.105,175.004 265.105,160.337 270.5,145.5 Z"/></g>
<g><path style="opacity:0.91" fill="#e65d5f" d="M 296.5,146.5 C 297.338,146.842 297.672,147.508 297.5,148.5C 289.5,156.833 281.5,165.167 273.5,173.5C 273.167,172.833 272.833,172.167 272.5,171.5C 279.799,162.533 287.799,154.2 296.5,146.5 Z"/></g>
<g><path style="opacity:0.957" fill="#e25e61" d="M 383.5,158.5 C 383.842,159.338 384.508,159.672 385.5,159.5C 378.442,163.865 371.108,167.865 363.5,171.5C 363.672,170.508 363.338,169.842 362.5,169.5C 369.335,165.582 376.335,161.915 383.5,158.5 Z"/></g>
<g><path style="opacity:0.871" fill="#dd5e66" d="M 168.5,153.5 C 183.435,165.766 197.435,179.099 210.5,193.5C 209.833,193.5 209.5,193.833 209.5,194.5C 195.141,181.139 180.807,167.805 166.5,154.5C 167.167,154.167 167.833,153.833 168.5,153.5 Z"/></g>
<g><path style="opacity:0.718" fill="#e55e62" d="M 327.5,143.5 C 327.328,144.492 327.662,145.158 328.5,145.5C 318.543,157.792 307.876,169.459 296.5,180.5C 296.5,179.5 296.5,178.5 296.5,177.5C 306.862,166.141 317.195,154.807 327.5,143.5 Z"/></g>
<g><path style="opacity:0.888" fill="#de5a5f" d="M 138.5,149.5 C 139.798,150.116 140.798,150.116 141.5,149.5C 149.216,156.882 156.216,164.882 162.5,173.5C 162.5,174.167 162.167,174.5 161.5,174.5C 153.493,166.493 145.827,158.159 138.5,149.5 Z"/></g>
<g><path style="opacity:0.974" fill="#e65b5c" d="M 234.5,142.5 C 235.641,146.377 236.808,150.377 238,154.5C 238.717,153.956 239.217,153.289 239.5,152.5C 240.404,153.209 240.737,154.209 240.5,155.5C 240.603,158.219 240.269,160.885 239.5,163.5C 241.261,170.399 242.261,177.399 242.5,184.5C 244.183,188.095 243.517,191.095 240.5,193.5C 240.666,188.821 240.499,184.155 240,179.5C 237.895,168.14 235.728,156.807 233.5,145.5C 233.263,144.209 233.596,143.209 234.5,142.5 Z"/></g>
<g><path style="opacity:1" fill="#e0595e" d="M 208.5,165.5 C 209.778,165.782 210.778,166.449 211.5,167.5C 216.35,179.522 221.517,191.522 227,203.5C 229.139,206.939 231.639,210.106 234.5,213C 235.448,213.483 236.448,213.649 237.5,213.5C 237.5,214.5 237.5,215.5 237.5,216.5C 232.742,215.586 229.242,212.919 227,208.5C 219.757,194.595 213.59,180.261 208.5,165.5 Z"/></g>
<g><path style="opacity:0.925" fill="#e05758" d="M 272.5,171.5 C 272.833,172.167 273.167,172.833 273.5,173.5C 267.136,181.524 260.803,189.524 254.5,197.5C 254.5,196.5 254.5,195.5 254.5,194.5C 259.744,186.255 265.744,178.588 272.5,171.5 Z"/></g>
<g><path style="opacity:1" fill="#e55d61" d="M 362.5,169.5 C 363.338,169.842 363.672,170.508 363.5,171.5C 353.99,176.755 344.324,181.755 334.5,186.5C 333.609,185.89 332.609,185.557 331.5,185.5C 341.669,179.915 352.002,174.582 362.5,169.5 Z"/></g>
<g><path style="opacity:0.855" fill="#e15e5e" d="M 375.5,172.5 C 376.492,172.328 377.158,172.662 377.5,173.5C 363.065,187.269 347.732,199.936 331.5,211.5C 331.158,210.662 330.492,210.328 329.5,210.5C 345.1,198.241 360.433,185.574 375.5,172.5 Z"/></g>
<g><path style="opacity:0.667" fill="#e8595c" d="M 123.5,184.5 C 123.158,185.338 122.492,185.672 121.5,185.5C 117.635,184.32 113.801,182.987 110,181.5C 109.235,181.57 108.735,181.903 108.5,182.5C 107.833,182.5 107.167,182.5 106.5,182.5C 105.115,181.386 103.615,180.386 102,179.5C 101.568,178.4 102.068,177.733 103.5,177.5C 110.685,178.671 117.352,181.004 123.5,184.5 Z"/></g>
<g><path style="opacity:0.892" fill="#e05e64" d="M 162.5,173.5 C 178.221,189.887 194.221,205.887 210.5,221.5C 209.662,221.842 209.328,222.508 209.5,223.5C 192.111,208.445 176.111,192.112 161.5,174.5C 162.167,174.5 162.5,174.167 162.5,173.5 Z"/></g>
<g><path style="opacity:0.925" fill="#e25c62" d="M 123.5,184.5 C 132.257,187.713 140.59,191.713 148.5,196.5C 148.158,197.338 147.492,197.672 146.5,197.5C 137.98,193.739 129.647,189.739 121.5,185.5C 122.492,185.672 123.158,185.338 123.5,184.5 Z"/></g>
<g><path style="opacity:1" fill="#e85d5e" d="M 331.5,185.5 C 332.609,185.557 333.609,185.89 334.5,186.5C 327.868,190.151 321.202,193.818 314.5,197.5C 313.833,196.833 313.167,196.167 312.5,195.5C 318.668,191.915 325.001,188.582 331.5,185.5 Z"/></g>
<g><path style="opacity:0.616" fill="#e85457" d="M 252.5,189.5 C 253.338,189.842 253.672,190.508 253.5,191.5C 253.461,192.583 253.127,193.583 252.5,194.5C 252.97,195.463 253.637,195.463 254.5,194.5C 254.5,195.5 254.5,196.5 254.5,197.5C 249.982,203.871 245.982,210.538 242.5,217.5C 241.583,214.995 241.583,212.662 242.5,210.5C 244.636,208.188 246.636,205.688 248.5,203C 245.918,202.458 243.918,203.292 242.5,205.5C 242.461,204.417 242.127,203.417 241.5,202.5C 242.243,201.818 242.909,201.151 243.5,200.5C 244.675,200.719 245.675,200.386 246.5,199.5C 248.526,196.103 250.526,192.77 252.5,189.5 Z"/></g>
<g><path style="opacity:1" fill="#ea5e60" d="M 296.5,177.5 C 296.5,178.5 296.5,179.5 296.5,180.5C 290.521,188.479 283.521,195.479 275.5,201.5C 275.5,200.5 275.5,199.5 275.5,198.5C 282.833,191.833 289.833,184.833 296.5,177.5 Z"/></g>
<g><path style="opacity:0.671" fill="#f55b5a" d="M 244.5,183.5 C 245.338,183.842 245.672,184.508 245.5,185.5C 244.833,190.5 244.167,195.5 243.5,200.5C 242.909,201.151 242.243,201.818 241.5,202.5C 242.127,203.417 242.461,204.417 242.5,205.5C 242.5,207.167 242.5,208.833 242.5,210.5C 241.583,212.662 241.583,214.995 242.5,217.5C 242.229,219.38 242.896,220.713 244.5,221.5C 245.506,221.938 245.506,222.604 244.5,223.5C 243.508,223.328 242.842,223.662 242.5,224.5C 241.778,224.918 241.278,225.584 241,226.5C 240.329,225.748 239.496,225.414 238.5,225.5C 238.81,222.287 238.477,219.287 237.5,216.5C 237.5,215.5 237.5,214.5 237.5,213.5C 238.369,211.283 238.702,208.95 238.5,206.5C 238.631,202.715 239.298,199.048 240.5,195.5C 240.5,194.833 240.5,194.167 240.5,193.5C 243.517,191.095 244.183,188.095 242.5,184.5C 243.167,184.167 243.833,183.833 244.5,183.5 Z"/></g>
<g><path style="opacity:0.98" fill="#e15b62" d="M 106.5,182.5 C 107.167,182.5 107.833,182.5 108.5,182.5C 122.859,195.195 137.192,207.862 151.5,220.5C 150.833,220.833 150.167,221.167 149.5,221.5C 134.558,209.192 120.225,196.192 106.5,182.5 Z"/></g>
<g><path style="opacity:0.925" fill="#db5e65" d="M 148.5,196.5 C 160.5,202.162 171.833,208.828 182.5,216.5C 181.508,216.328 180.842,216.662 180.5,217.5C 169.131,210.818 157.798,204.152 146.5,197.5C 147.492,197.672 148.158,197.338 148.5,196.5 Z"/></g>
<g><path style="opacity:1" fill="#e16264" d="M 275.5,198.5 C 275.5,199.5 275.5,200.5 275.5,201.5C 266.839,211.157 256.506,218.49 244.5,223.5C 245.506,222.604 245.506,221.938 244.5,221.5C 255.655,215.021 265.989,207.355 275.5,198.5 Z"/></g>
<g><path style="opacity:0.949" fill="#e36061" d="M 312.5,195.5 C 313.167,196.167 313.833,196.833 314.5,197.5C 297.266,205.915 280.932,215.748 265.5,227C 257.266,233.732 249.933,241.232 243.5,249.5C 243.5,248.5 243.5,247.5 243.5,246.5C 247.182,240.305 251.849,234.805 257.5,230C 274.653,216.693 292.986,205.193 312.5,195.5 Z"/></g>
<g><path style="opacity:0.747" fill="#d95b60" d="M 210.5,193.5 C 219.609,202.61 227.609,212.61 234.5,223.5C 234.5,224.833 234.5,226.167 234.5,227.5C 226.898,215.97 218.564,204.97 209.5,194.5C 209.5,193.833 209.833,193.5 210.5,193.5 Z"/></g>
<g><path style="opacity:0.939" fill="#db5a62" d="M 210.5,221.5 C 216.508,225.503 222.508,229.503 228.5,233.5C 227.662,233.842 227.328,234.508 227.5,235.5C 221.156,231.996 215.156,227.996 209.5,223.5C 209.328,222.508 209.662,221.842 210.5,221.5 Z"/></g>
<g><path style="opacity:0.886" fill="#e55d5e" d="M 329.5,210.5 C 330.492,210.328 331.158,210.662 331.5,211.5C 322.389,218.94 312.722,225.606 302.5,231.5C 301.833,231.167 301.167,230.833 300.5,230.5C 310.161,223.841 319.828,217.174 329.5,210.5 Z"/></g>
<g><path style="opacity:0.784" fill="#dd5e61" d="M 182.5,216.5 C 191.314,221.074 199.647,226.407 207.5,232.5C 207.158,233.338 206.492,233.672 205.5,233.5C 196.989,228.413 188.656,223.08 180.5,217.5C 180.842,216.662 181.508,216.328 182.5,216.5 Z"/></g>
<g><path style="opacity:0.196" fill="#ef6b6b" d="M 242.5,224.5 C 242.5,231.5 242.5,238.5 242.5,245.5C 240.883,244.411 240.05,242.744 240,240.5C 239.617,241.056 239.117,241.389 238.5,241.5C 239.051,236.313 239.051,230.98 238.5,225.5C 239.496,225.414 240.329,225.748 241,226.5C 241.278,225.584 241.778,224.918 242.5,224.5 Z"/></g>
<g><path style="opacity:0.975" fill="#e46166" d="M 300.5,230.5 C 301.167,230.833 301.833,231.167 302.5,231.5C 295.369,236.906 287.702,241.572 279.5,245.5C 279.5,244.5 279.5,243.5 279.5,242.5C 286.663,238.753 293.663,234.753 300.5,230.5 Z"/></g>
<g><path style="opacity:0.837" fill="#da5f61" d="M 207.5,232.5 C 215.089,237.458 222.089,243.125 228.5,249.5C 227.662,249.842 227.328,250.508 227.5,251.5C 220.127,245.489 212.794,239.489 205.5,233.5C 206.492,233.672 207.158,233.338 207.5,232.5 Z"/></g>
<g><path style="opacity:0.627" fill="#db5c5e" d="M 409.5,236.5 C 408.209,236.263 407.209,236.596 406.5,237.5C 396.596,237.482 386.93,237.815 377.5,238.5C 378.167,237.833 378.833,237.167 379.5,236.5C 389.628,235.205 399.628,235.205 409.5,236.5 Z"/></g>
<g><path style="opacity:0.988" fill="#dd5f63" d="M 151.5,220.5 C 159.525,227.529 167.525,234.529 175.5,241.5C 174.508,241.328 173.842,241.662 173.5,242.5C 165.085,235.961 157.085,228.961 149.5,221.5C 150.167,221.167 150.833,220.833 151.5,220.5 Z"/></g>
<g><path style="opacity:0.804" fill="#e75d5a" d="M 379.5,236.5 C 378.833,237.167 378.167,237.833 377.5,238.5C 363.359,240.528 349.359,243.195 335.5,246.5C 334.833,245.833 334.167,245.167 333.5,244.5C 348.604,240.68 363.937,238.013 379.5,236.5 Z"/></g>
<g><path style="opacity:0.843" fill="#ea5b5c" d="M 406.5,237.5 C 407.209,236.596 408.209,236.263 409.5,236.5C 411.262,236.357 412.929,236.691 414.5,237.5C 415.833,238.167 415.833,238.833 414.5,239.5C 406.247,243.13 397.914,246.463 389.5,249.5C 388.209,249.737 387.209,249.404 386.5,248.5C 393.691,245.26 401.025,242.094 408.5,239C 407.956,238.283 407.289,237.783 406.5,237.5 Z"/></g>
<g><path style="opacity:0.949" fill="#df5f65" d="M 173.5,242.5 C 173.842,241.662 174.508,241.328 175.5,241.5C 183.914,247.923 192.581,253.923 201.5,259.5C 200.508,259.328 199.842,259.662 199.5,260.5C 190.136,255.487 181.47,249.487 173.5,242.5 Z"/></g>
<g><path style="opacity:0.91" fill="#e65a5c" d="M 237.5,216.5 C 238.477,219.287 238.81,222.287 238.5,225.5C 239.051,230.98 239.051,236.313 238.5,241.5C 238.5,243.833 238.5,246.167 238.5,248.5C 237.833,244.5 237.167,240.5 236.5,236.5C 233.306,237.952 230.306,237.619 227.5,235.5C 227.328,234.508 227.662,233.842 228.5,233.5C 230.764,234.219 233.097,234.552 235.5,234.5C 235.552,232.097 235.219,229.764 234.5,227.5C 234.5,226.167 234.5,224.833 234.5,223.5C 235.222,223.918 235.722,224.584 236,225.5C 236.502,222.487 237.002,219.487 237.5,216.5 Z"/></g>
<g><path style="opacity:1" fill="#e66363" d="M 279.5,242.5 C 279.5,243.5 279.5,244.5 279.5,245.5C 268.357,252.619 256.357,255.619 243.5,254.5C 244.492,254.672 245.158,254.338 245.5,253.5C 257.752,252.638 269.085,248.971 279.5,242.5 Z"/></g>
<g><path style="opacity:0.925" fill="#e86061" d="M 333.5,244.5 C 334.167,245.167 334.833,245.833 335.5,246.5C 325.695,248.368 316.028,250.702 306.5,253.5C 306.557,252.391 306.89,251.391 307.5,250.5C 316.071,248.191 324.738,246.191 333.5,244.5 Z"/></g>
<g><path style="opacity:0.965" fill="#df5b5c" d="M 127.5,240.5 C 136.375,243.124 145.042,246.124 153.5,249.5C 153.5,250.167 153.5,250.833 153.5,251.5C 145.167,248.833 136.833,246.167 128.5,243.5C 127.89,242.609 127.557,241.609 127.5,240.5 Z"/></g>
<g><path style="opacity:1" fill="#eb5e63" d="M 228.5,249.5 C 230.902,251.909 233.569,253.909 236.5,255.5C 237.544,260.053 237.544,264.72 236.5,269.5C 236.869,267.007 236.203,266.34 234.5,267.5C 233.508,267.672 232.842,267.338 232.5,266.5C 234.391,264.164 234.891,261.498 234,258.5C 232.306,255.642 230.139,253.309 227.5,251.5C 227.328,250.508 227.662,249.842 228.5,249.5 Z"/></g>
<g><path style="opacity:1" fill="#e75d5f" d="M 386.5,248.5 C 387.209,249.404 388.209,249.737 389.5,249.5C 378.666,254.908 367.332,259.242 355.5,262.5C 353.302,262.591 352.969,261.925 354.5,260.5C 365.239,256.698 375.906,252.698 386.5,248.5 Z"/></g>
<g><path style="opacity:0.953" fill="#e3555d" d="M 127.5,240.5 C 127.557,241.609 127.89,242.609 128.5,243.5C 134.916,249.489 142.25,255.156 150.5,260.5C 150.158,261.338 149.492,261.672 148.5,261.5C 136.49,254.278 125.657,245.944 116,236.5C 119.728,238.131 123.561,239.465 127.5,240.5 Z"/></g>
<g><path style="opacity:0.769" fill="#dd5f60" d="M 153.5,249.5 C 164.773,252.591 175.773,256.258 186.5,260.5C 185.508,260.328 184.842,260.662 184.5,261.5C 174.039,258.569 163.706,255.235 153.5,251.5C 153.5,250.833 153.5,250.167 153.5,249.5 Z"/></g>
<g><path style="opacity:1" fill="#e46667" d="M 307.5,250.5 C 306.89,251.391 306.557,252.391 306.5,253.5C 291.979,256.951 277.645,261.117 263.5,266C 256.788,268.893 250.455,272.393 244.5,276.5C 244.672,275.508 244.338,274.842 243.5,274.5C 249.828,269.665 256.828,265.831 264.5,263C 278.705,258.366 293.038,254.199 307.5,250.5 Z"/></g>
<g><path style="opacity:0.796" fill="#f96565" d="M 242.5,245.5 C 242.5,246.167 242.833,246.5 243.5,246.5C 243.5,247.5 243.5,248.5 243.5,249.5C 243.229,251.38 243.896,252.713 245.5,253.5C 245.158,254.338 244.492,254.672 243.5,254.5C 242.167,254.5 241.5,255.167 241.5,256.5C 240.834,261.349 240.167,266.349 239.5,271.5C 239.167,271.167 238.833,270.833 238.5,270.5C 239.652,263.41 239.652,256.077 238.5,248.5C 238.5,246.167 238.5,243.833 238.5,241.5C 239.117,241.389 239.617,241.056 240,240.5C 240.05,242.744 240.883,244.411 242.5,245.5 Z"/></g>
<g><path style="opacity:0.98" fill="#df5f60" d="M 201.5,259.5 C 209.567,263.466 218.067,266.133 227,267.5C 228.825,267.057 230.658,266.723 232.5,266.5C 232.842,267.338 233.508,267.672 234.5,267.5C 221.967,270.456 210.301,268.123 199.5,260.5C 199.842,259.662 200.508,259.328 201.5,259.5 Z"/></g>
<g><path style="opacity:0.969" fill="#dd5b61" d="M 186.5,260.5 C 200.895,264.685 214.562,270.519 227.5,278C 230.447,280.436 232.78,283.269 234.5,286.5C 234.5,287.5 234.5,288.5 234.5,289.5C 231.356,284.191 227.023,280.025 221.5,277C 209.307,271.229 196.974,266.063 184.5,261.5C 184.842,260.662 185.508,260.328 186.5,260.5 Z"/></g>
<g><path style="opacity:0.969" fill="#df5e61" d="M 150.5,260.5 C 164.493,270.3 179.16,279.133 194.5,287C 206.313,292.37 218.646,295.37 231.5,296C 232.527,295.487 233.527,294.987 234.5,294.5C 234.5,295.5 234.5,296.5 234.5,297.5C 228.49,298.819 222.49,298.653 216.5,297C 191.355,289.597 168.689,277.764 148.5,261.5C 149.492,261.672 150.158,261.338 150.5,260.5 Z"/></g>
<g><path style="opacity:0.714" fill="#ed7372" d="M 236.5,236.5 C 237.167,240.5 237.833,244.5 238.5,248.5C 239.652,256.077 239.652,263.41 238.5,270.5C 238.833,270.833 239.167,271.167 239.5,271.5C 240.167,266.349 240.834,261.349 241.5,256.5C 241.5,262.167 241.5,267.833 241.5,273.5C 239.515,273.859 238.849,274.692 239.5,276C 237.192,278.447 235.859,281.281 235.5,284.5C 235.916,279.507 236.249,274.507 236.5,269.5C 237.544,264.72 237.544,260.053 236.5,255.5C 236.5,249.167 236.5,242.833 236.5,236.5 Z"/></g>
<g><path style="opacity:1" fill="#e45e5e" d="M 354.5,260.5 C 352.969,261.925 353.302,262.591 355.5,262.5C 331.362,272.455 306.362,279.788 280.5,284.5C 278.302,284.591 277.969,283.925 279.5,282.5C 305.103,277.187 330.103,269.854 354.5,260.5 Z"/></g>
<g><path style="opacity:1" fill="#f85b5a" d="M 241.5,273.5 C 241.842,274.338 242.508,274.672 243.5,274.5C 244.338,274.842 244.672,275.508 244.5,276.5C 243.833,276.5 243.5,276.833 243.5,277.5C 241.769,280.071 240.769,283.071 240.5,286.5C 239.624,286.369 238.957,286.702 238.5,287.5C 239.826,292.225 239.826,295.558 238.5,297.5C 238.5,294.833 238.5,292.167 238.5,289.5C 237.167,289.5 235.833,289.5 234.5,289.5C 234.5,288.5 234.5,287.5 234.5,286.5C 235.338,286.158 235.672,285.492 235.5,284.5C 235.859,281.281 237.192,278.447 239.5,276C 238.849,274.692 239.515,273.859 241.5,273.5 Z"/></g>
<g><path style="opacity:0.925" fill="#e06263" d="M 243.5,277.5 C 242.032,279.611 242.365,281.444 244.5,283C 256.043,285.433 267.709,285.266 279.5,282.5C 277.969,283.925 278.302,284.591 280.5,284.5C 268.026,287.901 255.359,288.234 242.5,285.5C 242.5,290.167 242.5,294.833 242.5,299.5C 241.778,299.082 241.278,298.416 241,297.5C 240.501,293.848 240.335,290.182 240.5,286.5C 240.769,283.071 241.769,280.071 243.5,277.5 Z"/></g>
<g><path style="opacity:1" fill="#ee5a5d" d="M 331.5,287.5 C 330.508,287.672 329.842,287.338 329.5,286.5C 330.289,286.217 330.956,285.717 331.5,285C 329.19,284.503 326.857,284.337 324.5,284.5C 322.821,284.715 321.821,284.048 321.5,282.5C 328.192,281.707 334.859,281.707 341.5,282.5C 338.638,285.009 335.305,286.675 331.5,287.5 Z"/></g>
<g><path style="opacity:0.902" fill="#e25d5e" d="M 321.5,282.5 C 321.821,284.048 322.821,284.715 324.5,284.5C 307.58,286.408 290.58,288.742 273.5,291.5C 271.901,291.768 270.568,291.434 269.5,290.5C 286.62,286.692 303.953,284.026 321.5,282.5 Z"/></g>
<g><path style="opacity:1" fill="#e26261" d="M 269.5,290.5 C 270.568,291.434 271.901,291.768 273.5,291.5C 263.219,293.374 253.552,297.041 244.5,302.5C 244.5,301.5 244.5,300.5 244.5,299.5C 252.29,295.11 260.624,292.11 269.5,290.5 Z"/></g>
<g><path style="opacity:0.937" fill="#e45f5f" d="M 329.5,286.5 C 329.842,287.338 330.508,287.672 331.5,287.5C 317.531,294.812 302.864,300.478 287.5,304.5C 287.5,303.833 287.5,303.167 287.5,302.5C 301.729,297.757 315.729,292.424 329.5,286.5 Z"/></g>
<g><path style="opacity:0.659" fill="#f8696a" d="M 240.5,286.5 C 240.335,290.182 240.501,293.848 241,297.5C 241.278,298.416 241.778,299.082 242.5,299.5C 242.938,300.506 243.604,300.506 244.5,299.5C 244.5,300.5 244.5,301.5 244.5,302.5C 243.058,303.82 242.392,305.486 242.5,307.5C 243.658,308.95 243.158,309.95 241,310.5C 240.444,312.885 240.61,315.218 241.5,317.5C 240.662,317.842 240.328,318.508 240.5,319.5C 239.037,316.797 238.204,313.797 238,310.5C 237.186,305.98 237.353,301.646 238.5,297.5C 239.826,295.558 239.826,292.225 238.5,287.5C 238.957,286.702 239.624,286.369 240.5,286.5 Z"/></g>
<g><path style="opacity:1" fill="#f05e5f" d="M 234.5,289.5 C 235.833,289.5 237.167,289.5 238.5,289.5C 238.5,292.167 238.5,294.833 238.5,297.5C 237.353,301.646 237.186,305.98 238,310.5C 238.204,313.797 239.037,316.797 240.5,319.5C 240.815,323.371 240.482,327.038 239.5,330.5C 239.167,326.5 238.833,326.5 238.5,330.5C 237.596,331.209 237.263,332.209 237.5,333.5C 236.5,333.5 235.5,333.5 234.5,333.5C 234.5,332.5 234.5,331.5 234.5,330.5C 235.833,319.5 235.833,308.5 234.5,297.5C 234.5,296.5 234.5,295.5 234.5,294.5C 234.5,292.833 234.5,291.167 234.5,289.5 Z"/></g>
<g><path style="opacity:0.929" fill="#e66262" d="M 287.5,302.5 C 287.5,303.167 287.5,303.833 287.5,304.5C 280.794,307.248 273.794,309.248 266.5,310.5C 264.833,309.833 263.167,309.167 261.5,308.5C 270.313,307.13 278.979,305.13 287.5,302.5 Z"/></g>
<g><path style="opacity:0.875" fill="#d86569" d="M 242.5,307.5 C 248.775,308.418 255.108,308.751 261.5,308.5C 263.167,309.167 264.833,309.833 266.5,310.5C 258.493,311.723 250.493,311.723 242.5,310.5C 242.5,326.5 242.5,342.5 242.5,358.5C 241.504,345.01 241.171,331.344 241.5,317.5C 240.61,315.218 240.444,312.885 241,310.5C 243.158,309.95 243.658,308.95 242.5,307.5 Z"/></g>
<g><path style="opacity:0.897" fill="#e05e62" d="M 169.5,320.5 C 169.557,321.609 169.89,322.609 170.5,323.5C 161.485,323.501 152.485,323.834 143.5,324.5C 146.159,324.083 148.492,323.083 150.5,321.5C 156.822,320.986 163.155,320.653 169.5,320.5 Z"/></g>
<g><path style="opacity:1" fill="#ed5858" d="M 150.5,321.5 C 148.492,323.083 146.159,324.083 143.5,324.5C 137.313,324.615 131.313,325.449 125.5,327C 127.058,327.21 128.391,327.71 129.5,328.5C 126.941,328.198 124.607,328.532 122.5,329.5C 119.021,327.878 115.355,326.711 111.5,326C 111.833,325.667 112.167,325.333 112.5,325C 125.111,323.197 137.778,322.03 150.5,321.5 Z"/></g>
<g><path style="opacity:0.922" fill="#e85859" d="M 169.5,320.5 C 183.567,320.102 197.567,320.769 211.5,322.5C 211.918,323.222 212.584,323.722 213.5,324C 212.906,324.464 212.239,324.631 211.5,324.5C 200.835,323.878 190.169,323.211 179.5,322.5C 176.415,322.544 173.415,322.878 170.5,323.5C 169.89,322.609 169.557,321.609 169.5,320.5 Z"/></g>
<g><path style="opacity:0.812" fill="#e35c62" d="M 211.5,322.5 C 217.645,323.37 223.645,324.87 229.5,327C 231.584,327.697 233.251,328.864 234.5,330.5C 234.5,331.5 234.5,332.5 234.5,333.5C 232.535,331.512 230.202,330.012 227.5,329C 222.044,327.473 216.711,325.973 211.5,324.5C 212.239,324.631 212.906,324.464 213.5,324C 212.584,323.722 211.918,323.222 211.5,322.5 Z"/></g>
<g><path style="opacity:0.545" fill="#e5565a" d="M 122.5,329.5 C 124.607,328.532 126.941,328.198 129.5,328.5C 141.797,331.324 154.13,333.991 166.5,336.5C 168.031,337.925 167.698,338.591 165.5,338.5C 151.136,335.659 136.803,332.659 122.5,329.5 Z"/></g>
<g><path style="opacity:0.999" fill="#ec5a5a" d="M 241.5,317.5 C 241.171,331.344 241.504,345.01 242.5,358.5C 242.5,364.167 242.5,369.833 242.5,375.5C 241.5,376.833 240.5,376.833 239.5,375.5C 239.957,360.675 239.957,345.675 239.5,330.5C 240.482,327.038 240.815,323.371 240.5,319.5C 240.328,318.508 240.662,317.842 241.5,317.5 Z"/></g>
<g><path style="opacity:0.906" fill="#df5e5d" d="M 166.5,336.5 C 181.593,340.275 196.926,342.275 212.5,342.5C 208.5,343.167 204.5,343.833 200.5,344.5C 188.505,343.668 176.838,341.668 165.5,338.5C 167.698,338.591 168.031,337.925 166.5,336.5 Z"/></g>
<g><path style="opacity:0.984" fill="#ea5c5b" d="M 238.5,330.5 C 238.215,345.536 238.549,360.536 239.5,375.5C 240.5,376.833 241.5,376.833 242.5,375.5C 243.576,377.362 242.909,378.695 240.5,379.5C 239.558,379.392 238.725,379.059 238,378.5C 237.667,377.167 237.333,375.833 237,374.5C 236.833,362.486 236.333,350.486 235.5,338.5C 231.354,341.605 226.687,343.439 221.5,344C 214.459,345.452 207.459,345.619 200.5,344.5C 204.5,343.833 208.5,343.167 212.5,342.5C 219.16,342.335 225.493,340.835 231.5,338C 233.141,336.871 234.141,335.371 234.5,333.5C 235.5,333.5 236.5,333.5 237.5,333.5C 237.263,332.209 237.596,331.209 238.5,330.5 Z"/></g>
<g><path style="opacity:0.999" fill="#eb5959" d="M 305.5,411.5 C 304.391,412.29 303.058,412.79 301.5,413C 302.056,413.383 302.389,413.883 302.5,414.5C 296.238,413.67 291.904,416.003 289.5,421.5C 288.672,427.987 288.172,434.654 288,441.5C 287.722,440.584 287.222,439.918 286.5,439.5C 285.347,433.681 285.181,427.681 286,421.5C 286.833,415.333 290.333,411.833 296.5,411C 299.531,410.505 302.531,410.671 305.5,411.5 Z"/></g>
<g><path style="opacity:1" fill="#e25d5e" d="M 345.5,411.5 C 344.737,412.268 343.737,412.768 342.5,413C 343.056,413.383 343.389,413.883 343.5,414.5C 337.758,413.456 333.591,415.456 331,420.5C 330.5,426.825 330.334,433.158 330.5,439.5C 328.824,440.183 328.157,441.517 328.5,443.5C 327.732,442.737 327.232,441.737 327,440.5C 326.099,432.421 326.432,424.421 328,416.5C 332.703,410.777 338.536,409.111 345.5,411.5 Z"/></g>
<g><path style="opacity:1" fill="#e15f61" d="M 252.5,411.5 C 259.321,410.345 266.321,410.179 273.5,411C 274.833,412 274.833,413 273.5,414C 267.509,414.499 261.509,414.666 255.5,414.5C 255.611,413.883 255.944,413.383 256.5,413C 255.099,412.59 253.766,412.09 252.5,411.5 Z"/></g>
<g><path style="opacity:0.471" fill="#cd6767" d="M 182.5,411.5 C 189.321,410.345 196.321,410.179 203.5,411C 204.833,412 204.833,413 203.5,414C 200.518,414.498 197.518,414.665 194.5,414.5C 197.028,413.834 199.694,413.168 202.5,412.5C 195.866,411.503 189.2,411.17 182.5,411.5 Z"/></g>
<g><path style="opacity:1" fill="#e9585a" d="M 345.5,411.5 C 351.427,413.665 354.093,417.998 353.5,424.5C 352.5,424.5 351.5,424.5 350.5,424.5C 350.122,419.727 347.788,416.393 343.5,414.5C 343.389,413.883 343.056,413.383 342.5,413C 343.737,412.768 344.737,412.268 345.5,411.5 Z"/></g>
<g><path style="opacity:0.99" fill="#ec5355" d="M 252.5,411.5 C 253.766,412.09 255.099,412.59 256.5,413C 255.944,413.383 255.611,413.883 255.5,414.5C 255.334,419.179 255.501,423.845 256,428.5C 260.748,427.365 265.581,427.198 270.5,428C 271.833,429 271.833,430 270.5,431C 265.511,431.499 260.511,431.666 255.5,431.5C 255.5,437.5 255.5,443.5 255.5,449.5C 254.167,449.5 252.833,449.5 251.5,449.5C 251.171,436.656 251.505,423.989 252.5,411.5 Z"/></g>
<g><path style="opacity:0.996" fill="#ed5b5e" d="M 148.5,439.5 C 148.5,441.5 148.5,443.5 148.5,445.5C 147.624,445.369 146.957,445.702 146.5,446.5C 147.127,447.417 147.461,448.417 147.5,449.5C 146.508,449.672 145.842,449.338 145.5,448.5C 145.168,436.482 145.501,424.482 146.5,412.5C 147.167,421.658 147.833,430.658 148.5,439.5 Z"/></g>
<g><path style="opacity:0.992" fill="#eb5a5b" d="M 182.5,411.5 C 189.2,411.17 195.866,411.503 202.5,412.5C 199.694,413.168 197.028,413.834 194.5,414.5C 191.167,414.5 187.833,414.5 184.5,414.5C 184.334,424.839 184.5,435.172 185,445.5C 191.41,446.478 197.91,446.811 204.5,446.5C 204.5,447.5 204.5,448.5 204.5,449.5C 196.58,449.815 188.747,449.482 181,448.5C 180.333,436.5 180.333,424.5 181,412.5C 181.383,411.944 181.883,411.611 182.5,411.5 Z"/></g>
<g><path style="opacity:1" fill="#ee5458" d="M 305.5,411.5 C 308.382,412.697 310.549,414.697 312,417.5C 313.964,425.847 313.964,434.18 312,442.5C 311.246,446.089 309.079,448.089 305.5,448.5C 303.517,448.843 302.183,448.176 301.5,446.5C 308.349,443.471 311.015,438.138 309.5,430.5C 309.552,426.413 309.052,422.413 308,418.5C 306.5,416.531 304.667,415.198 302.5,414.5C 302.389,413.883 302.056,413.383 301.5,413C 303.058,412.79 304.391,412.29 305.5,411.5 Z"/></g>
<g><path style="opacity:0.208" fill="#ca6163" d="M 148.5,439.5 C 147.833,430.658 147.167,421.658 146.5,412.5C 145.501,424.482 145.168,436.482 145.5,448.5C 144.34,436.34 144.173,424.007 145,411.5C 146,410.167 147,410.167 148,411.5C 148.5,420.827 148.666,430.161 148.5,439.5 Z"/></g>
<g><path style="opacity:1" fill="#e25a5c" d="M 186.5,427.5 C 191.167,427.5 195.833,427.5 200.5,427.5C 200.5,428.833 200.5,430.167 200.5,431.5C 195.821,431.666 191.155,431.499 186.5,431C 185.316,429.855 185.316,428.688 186.5,427.5 Z"/></g>
<g><path style="opacity:0.992" fill="#ed5559" d="M 348.5,447.5 C 346.181,448.167 343.847,448.334 341.5,448C 342.416,447.722 343.082,447.222 343.5,446.5C 348.628,443.86 350.961,439.526 350.5,433.5C 347.167,433.5 343.833,433.5 340.5,433.5C 340.33,432.178 340.663,431.011 341.5,430C 345.423,429.207 349.256,429.374 353,430.5C 353.667,434.5 353.667,438.5 353,442.5C 352.004,444.66 350.504,446.327 348.5,447.5 Z"/></g>
<g><path style="opacity:0.996" fill="#e15557" d="M 289.5,421.5 C 289.334,427.509 289.501,433.509 290,439.5C 292.136,444.49 295.969,446.823 301.5,446.5C 302.183,448.176 303.517,448.843 305.5,448.5C 299.415,451.021 293.748,450.021 288.5,445.5C 287.253,443.677 286.586,441.677 286.5,439.5C 287.222,439.918 287.722,440.584 288,441.5C 288.172,434.654 288.672,427.987 289.5,421.5 Z"/></g>
<g><path style="opacity:1" fill="#e45457" d="M 330.5,439.5 C 333.188,444.681 337.522,447.014 343.5,446.5C 343.082,447.222 342.416,447.722 341.5,448C 343.847,448.334 346.181,448.167 348.5,447.5C 342.615,451.145 336.615,450.978 330.5,447C 329.177,446.184 328.511,445.017 328.5,443.5C 328.157,441.517 328.824,440.183 330.5,439.5 Z"/></g>
<g><path style="opacity:0.953" fill="#eb5455" d="M 148.5,445.5 C 154.645,446.49 160.978,446.823 167.5,446.5C 167.5,447.5 167.5,448.5 167.5,449.5C 160.833,449.5 154.167,449.5 147.5,449.5C 147.461,448.417 147.127,447.417 146.5,446.5C 146.957,445.702 147.624,445.369 148.5,445.5 Z"/></g>
</svg>
