<?xml version="1.0" standalone="no"?>
<!DOCTYPE svg PUBLIC "-//W3C//DTD SVG 20010904//EN"
 "http://www.w3.org/TR/2001/REC-SVG-20010904/DTD/svg10.dtd">
<svg version="1.0" xmlns="http://www.w3.org/2000/svg"
 width="300.000000pt" height="300.000000pt" viewBox="0 0 300.000000 300.000000"
 preserveAspectRatio="xMidYMid meet">
<metadata>
Created by potrace 1.10, written by Peter Selinger 2001-2011
</metadata>
<g transform="translate(0.000000,300.000000) scale(0.100000,-0.100000)"
fill="#000000" stroke="none">
<path d="M1010 2787 c0 -7 6 -33 14 -58 8 -24 24 -80 36 -124 12 -44 25 -91
30 -105 5 -14 18 -59 30 -100 111 -377 247 -700 295 -700 10 0 15 -11 15 -32
0 -18 -4 -28 -8 -23 -4 6 -33 44 -64 85 -51 68 -208 229 -313 320 -22 19 -72
62 -110 96 -134 117 -300 234 -331 234 -6 0 33 -49 166 -205 310 -366 548
-594 624 -598 25 -2 26 -4 26 -62 l0 -59 -47 46 c-133 129 -541 372 -710 421
-57 17 -66 11 -32 -19 15 -13 23 -15 26 -7 17 48 555 -265 716 -416 42 -40 47
-65 16 -82 -46 -24 -185 37 -312 138 -59 46 -197 163 -217 183 -58 58 -192
171 -198 166 -3 -4 -2 -10 5 -14 6 -4 53 -46 104 -93 131 -121 299 -262 371
-310 107 -73 234 -109 266 -77 9 9 12 -3 12 -56 l0 -68 -25 31 c-14 16 -41 39
-59 50 -36 22 -239 99 -416 156 -63 21 -139 46 -168 56 -30 11 -52 15 -50 10
8 -21 266 -201 385 -269 119 -67 274 -113 312 -93 21 12 21 10 21 -93 l0 -105
-32 19 c-19 10 -82 26 -148 36 -103 16 -134 16 -300 5 -211 -14 -265 -21 -253
-31 4 -4 60 -19 123 -34 63 -15 133 -31 155 -37 185 -44 355 -52 418 -20 l37
19 0 -93 c0 -110 8 -155 26 -155 11 0 14 38 14 205 l0 205 63 0 c66 0 154 18
252 51 89 29 275 111 275 121 0 10 10 10 -135 -2 -200 -18 -375 -55 -427 -91
-14 -11 -28 -19 -31 -19 -3 0 -5 23 -5 50 -1 50 -1 50 26 43 105 -30 365 26
697 150 217 81 326 130 316 140 -26 26 -242 14 -411 -23 -307 -68 -512 -130
-582 -176 -21 -13 -40 -24 -43 -24 -3 0 -5 27 -5 59 l0 60 33 -6 c122 -19 480
211 853 551 61 55 110 103 108 104 -3 5 -563 -287 -684 -357 -121 -69 -231
-155 -275 -213 -16 -21 -30 -36 -31 -35 -2 2 0 35 3 75 4 52 10 72 20 72 55 0
296 224 514 480 148 172 380 463 374 468 -2 2 -28 -15 -58 -39 -30 -24 -84
-66 -118 -94 -70 -55 -245 -201 -269 -225 -9 -8 -58 -53 -109 -100 -88 -81
-180 -183 -266 -297 -21 -29 -40 -53 -41 -53 0 0 18 39 42 88 36 75 111 279
143 392 5 19 19 69 31 110 35 122 90 347 89 367 0 30 -84 -156 -229 -512 l-41
-100 6 55 c3 30 12 102 20 160 8 58 22 155 30 215 8 61 18 130 21 154 9 55 -9
49 -35 -13 -31 -71 -99 -366 -132 -568 -7 -42 -16 -75 -20 -73 -4 3 -10 26
-14 52 -15 100 -156 663 -167 663 -4 0 -6 -17 -3 -37 3 -21 10 -81 15 -133 12
-126 37 -328 50 -414 10 -70 8 -97 -5 -54 -8 25 -75 185 -110 263 -13 28 -43
95 -68 150 -105 234 -117 257 -117 222z m586 -103 c-4 -14 -11 -58 -16 -97 -6
-40 -17 -121 -25 -182 -9 -60 -22 -161 -30 -222 -8 -62 -24 -155 -37 -205
l-23 -93 -11 65 c-8 42 -9 83 -4 115 22 126 53 285 70 360 5 22 19 81 30 130
24 105 39 155 47 155 3 0 2 -12 -1 -26z m-483 -124 c134 -297 231 -533 281
-683 39 -118 44 -157 21 -157 -44 0 -150 271 -324 834 -32 102 -39 143 -16 91
7 -17 24 -55 38 -85z m207 -90 c12 -52 34 -149 50 -215 55 -236 60 -261 70
-338 19 -134 3 -136 -41 -6 -61 177 -62 186 -104 544 -7 66 -16 140 -20 165
l-5 45 13 -50 c8 -27 24 -93 37 -145z m399 -17 c-78 -281 -131 -438 -190 -562
-59 -124 -78 -126 -48 -6 39 159 70 245 224 620 58 142 64 155 69 155 2 0 -23
-93 -55 -207z m485 -30 c-337 -416 -587 -678 -704 -738 -36 -19 -40 -19 -40 1
0 43 141 225 299 387 117 120 506 457 527 457 3 0 -34 -48 -82 -107z m-1480
-130 c53 -38 185 -145 246 -199 136 -120 274 -251 322 -306 64 -73 128 -166
128 -185 0 -63 -206 98 -401 312 -141 156 -362 415 -353 415 3 0 29 -17 58
-37z m1632 -242 c-9 -14 -283 -242 -371 -308 -174 -131 -284 -199 -389 -238
-66 -25 -136 -33 -136 -16 0 18 93 112 159 160 88 64 173 112 481 275 278 147
263 140 256 127z m-913 -900 c1 -227 0 -405 -4 -395 -4 11 -7 206 -7 434 0
228 2 406 4 395 2 -11 5 -206 7 -434z m1016 415 c-2 -2 -71 -30 -154 -64 -376
-151 -687 -231 -809 -208 -133 25 105 133 474 215 117 26 244 49 290 54 49 5
204 8 199 3z m-1174 -210 c73 -34 125 -83 125 -118 0 -19 -4 -20 -56 -14 -76
9 -185 48 -269 98 -81 48 -304 198 -311 210 -7 12 429 -139 511 -176z m685
-80 c-42 -23 -221 -88 -295 -107 -82 -22 -219 -26 -213 -6 8 23 67 54 135 70
98 24 279 50 373 55 l25 1 -25 -13z m-642 -242 c60 -16 89 -35 78 -53 -10 -16
-103 -41 -150 -41 -71 1 -512 87 -501 98 2 3 59 8 127 12 160 11 373 3 446
-16z"/>
<path d="M2010 527 c-38 -19 -51 -54 -47 -126 2 -52 7 -67 26 -82 56 -45 146
-4 139 64 -3 30 -6 32 -40 32 -21 0 -38 -4 -38 -10 0 -5 13 -10 28 -10 34 0
40 -27 13 -54 -25 -25 -73 -27 -92 -5 -18 22 -23 114 -7 144 23 42 91 39 108
-5 9 -25 30 -35 30 -14 0 22 -22 49 -50 64 -35 18 -38 18 -70 2z"/>
<path d="M870 415 l0 -115 70 0 c40 0 70 4 70 10 0 6 -26 10 -58 10 l-59 0 5
105 c4 92 3 105 -12 105 -14 0 -16 -15 -16 -115z"/>
<path d="M1090 415 l0 -115 70 0 c40 0 70 4 70 10 0 6 -27 10 -60 10 l-60 0 0
95 0 95 60 0 c33 0 60 4 60 10 0 6 -30 10 -70 10 l-70 0 0 -115z"/>
<path d="M1517 523 c-4 -3 -7 -55 -7 -115 0 -89 3 -108 15 -108 12 0 15 13 15
55 l0 55 45 0 c25 0 45 5 45 10 0 6 -20 10 -45 10 l-45 0 0 40 0 40 55 0 c30
0 55 5 55 10 0 11 -123 14 -133 3z"/>
<path d="M1742 507 c-18 -19 -22 -35 -22 -93 0 -87 19 -114 80 -114 61 0 80
27 80 115 0 62 -3 74 -23 93 -32 30 -87 29 -115 -1z m100 -14 c24 -22 26 -128
1 -155 -20 -22 -61 -23 -85 -1 -24 22 -26 128 -1 155 20 22 61 23 85 1z"/>
<path d="M1120 420 c0 -5 20 -10 45 -10 25 0 45 5 45 10 0 6 -20 10 -45 10
-25 0 -45 -4 -45 -10z"/>
</g>
</svg>
