<?xml version="1.0" standalone="no"?>
<!DOCTYPE svg PUBLIC "-//W3C//DTD SVG 20010904//EN"
 "http://www.w3.org/TR/2001/REC-SVG-20010904/DTD/svg10.dtd">
<svg version="1.0" xmlns="http://www.w3.org/2000/svg"
 width="300.000000pt" height="300.000000pt" viewBox="0 0 300.000000 300.000000"
 preserveAspectRatio="xMidYMid meet">
<metadata>
Created by potrace 1.10, written by Peter Selinger 2001-2011
</metadata>
<g transform="translate(0.000000,300.000000) scale(0.100000,-0.100000)"
fill="#000000" stroke="none">
<path d="M0 1500 l0 -1500 1500 0 1500 0 0 1500 0 1500 -1500 0 -1500 0 0
-1500z m1030 1281 c0 -5 23 -58 51 -118 62 -132 189 -421 214 -486 10 -26 20
-46 22 -44 2 2 -2 37 -8 78 -6 41 -12 92 -15 114 -2 22 -8 74 -14 115 -5 41
-14 122 -20 180 -6 58 -12 120 -14 138 -3 17 -1 32 3 32 9 0 149 -558 167
-665 9 -53 23 -79 24 -45 1 14 3 32 5 40 2 8 8 42 14 75 5 33 13 71 15 85 3
14 10 48 16 75 10 54 12 63 30 140 6 28 14 60 16 73 20 105 91 259 78 170 -2
-18 -11 -87 -19 -153 -8 -66 -20 -151 -25 -190 -6 -38 -13 -83 -15 -100 -2
-16 -9 -63 -15 -104 -11 -75 -8 -108 5 -51 16 71 257 640 263 621 13 -39 -158
-632 -235 -816 -34 -82 -85 -165 -100 -165 -7 0 -13 -12 -13 -27 l0 -28 21 35
c51 84 192 256 280 340 151 144 310 283 454 395 21 17 62 49 91 73 29 23 56
42 59 42 6 0 -90 -127 -146 -195 -10 -11 -65 -78 -125 -150 -155 -188 -311
-361 -406 -450 -83 -78 -189 -155 -215 -155 -8 0 -13 -12 -14 -32 0 -18 -3
-53 -6 -78 l-5 -45 47 53 c26 29 73 72 104 95 51 39 192 129 216 138 6 2 57
29 115 61 124 66 512 268 516 268 8 0 -165 -157 -272 -246 -226 -189 -377
-293 -518 -360 -95 -44 -178 -64 -190 -45 -5 7 6 11 32 11 50 0 162 45 262
105 78 48 313 220 385 282 77 68 90 79 148 127 32 27 55 51 53 53 -5 6 -513
-262 -625 -328 -92 -55 -195 -140 -239 -199 -34 -44 -34 -46 -30 -127 2 -46 7
-85 10 -88 26 -26 169 -17 318 20 36 9 72 18 80 20 46 10 311 103 447 157
l158 63 -60 3 c-63 4 -236 -13 -295 -28 -19 -5 -80 -19 -135 -31 -92 -20 -164
-38 -285 -74 -75 -22 -132 -44 -179 -70 -56 -32 -66 -25 -12 9 39 25 203 85
286 105 22 5 74 18 115 29 165 43 399 82 489 82 31 -1 69 -7 86 -14 28 -12 24
-14 -175 -93 -228 -90 -372 -138 -532 -177 -109 -27 -241 -37 -290 -23 -28 7
-28 7 -28 -43 0 -27 2 -50 4 -50 3 0 20 9 39 20 51 30 154 57 290 75 81 11
261 25 265 20 7 -7 9 -6 -83 -47 -180 -81 -343 -128 -442 -128 l-63 0 0 -205
c0 -167 -3 -205 -14 -205 -18 0 -26 45 -26 155 l0 93 -37 -20 c-54 -28 -233
-20 -393 17 -14 3 -43 10 -65 15 -110 24 -219 52 -234 60 -19 10 38 17 249 31
151 9 191 9 295 -6 74 -10 133 -24 153 -35 l32 -19 0 104 0 105 -24 -12 c-54
-24 -248 51 -414 159 -111 73 -281 196 -282 204 0 8 381 -118 522 -173 83 -32
123 -53 155 -84 l43 -41 0 66 c0 50 -3 62 -12 53 -30 -30 -140 -2 -243 63 -68
43 -185 138 -313 252 -136 122 -242 222 -242 227 0 10 107 -27 186 -64 167
-77 458 -261 563 -357 l61 -55 0 59 c0 54 -2 58 -24 59 -42 3 -148 84 -276
214 -120 120 -523 580 -515 588 11 11 154 -87 280 -191 200 -166 399 -359 473
-457 31 -41 60 -79 64 -85 4 -5 8 5 8 23 0 21 -5 32 -15 32 -46 0 -153 245
-267 610 -16 52 -31 102 -33 110 -2 8 -9 31 -15 50 -6 19 -27 91 -46 160 -20
69 -38 133 -41 143 -3 9 0 17 6 17 6 0 11 -4 11 -9z m1091 -2292 c7 -14 7 -25
1 -31 -7 -7 -15 0 -24 19 -11 24 -19 28 -53 28 -32 0 -42 -5 -53 -25 -16 -30
-11 -122 7 -144 22 -26 78 -20 97 9 20 31 12 57 -18 53 -13 -1 -24 2 -25 7 -2
6 14 10 34 10 l38 0 -3 -40 c-4 -48 -31 -75 -77 -75 -56 0 -78 28 -82 101 -5
78 10 110 57 125 41 14 82 -2 101 -37z m-1229 -64 l-3 -105 60 0 c34 0 61 -4
61 -10 0 -6 -30 -10 -70 -10 l-70 0 0 115 c0 85 3 115 13 115 9 0 11 -26 9
-105z m338 95 c0 -6 -27 -10 -60 -10 l-60 0 0 -95 0 -95 60 0 c33 0 60 -4 60
-10 0 -6 -30 -10 -70 -10 l-70 0 0 115 0 115 70 0 c40 0 70 -4 70 -10z m420 0
c0 -6 -26 -10 -58 -10 l-58 0 4 -40 4 -40 44 0 c24 0 44 -4 44 -10 0 -5 -21
-10 -47 -10 l-48 0 3 -55 c3 -45 1 -55 -12 -55 -13 0 -15 17 -15 107 1 59 3
111 5 115 8 12 134 10 134 -2z m207 -12 c20 -18 23 -31 23 -92 0 -58 -4 -74
-22 -93 -27 -29 -76 -30 -112 -2 -24 19 -26 27 -26 92 0 59 4 75 22 94 28 30
83 31 115 1z m-647 -88 c0 -5 -20 -10 -45 -10 -25 0 -45 5 -45 10 0 6 20 10
45 10 25 0 45 -4 45 -10z"/>
<path d="M1575 2657 c-8 -30 -17 -63 -20 -73 -2 -11 -11 -50 -20 -89 -18 -81
-45 -215 -74 -367 -17 -88 -18 -117 -10 -169 6 -35 12 -65 13 -67 2 -1 11 28
21 65 22 90 23 95 35 188 6 44 13 96 15 115 3 19 12 85 20 145 8 61 21 153 29
205 8 52 13 96 11 98 -2 2 -11 -20 -20 -51z"/>
<path d="M1051 2689 c-1 -3 8 -32 18 -65 11 -32 35 -113 55 -179 73 -251 190
-572 244 -670 18 -33 35 -51 49 -53 21 -3 21 -3 8 55 -8 32 -31 108 -53 168
-58 162 -319 766 -321 744z"/>
<path d="M1747 2608 c-14 -35 -64 -156 -110 -270 -95 -232 -116 -290 -152
-433 -29 -115 -29 -115 -14 -115 16 0 102 190 148 325 42 125 161 548 156 553
-1 2 -14 -25 -28 -60z"/>
<path d="M1276 2615 c6 -64 11 -100 24 -205 6 -47 17 -139 26 -205 16 -131 15
-128 72 -294 29 -84 41 -109 46 -94 14 42 -8 168 -84 483 -17 74 -34 144 -36
155 -2 11 -15 63 -29 115 -19 71 -23 83 -19 45z"/>
<path d="M2195 2464 c-239 -200 -266 -224 -385 -338 -202 -194 -398 -456 -341
-456 25 0 148 97 242 190 93 93 136 140 279 304 41 47 168 200 220 266 19 24
48 59 64 77 45 52 18 38 -79 -43z"/>
<path d="M698 2283 c269 -312 351 -403 450 -500 150 -148 272 -229 272 -180 0
61 -258 334 -534 565 -50 42 -225 172 -231 172 -3 0 16 -26 43 -57z"/>
<path d="M2355 2060 c-3 -5 -2 -10 4 -10 5 0 13 5 16 10 3 6 2 10 -4 10 -5 0
-13 -4 -16 -10z"/>
<path d="M650 1908 c188 -181 482 -421 570 -467 44 -23 82 -41 85 -41 3 1 18
-1 35 -5 35 -8 70 9 70 34 0 51 -316 273 -565 395 -130 65 -212 100 -195 84z"/>
<path d="M1442 1685 c0 -16 2 -22 5 -12 2 9 2 23 0 30 -3 6 -5 -1 -5 -18z"/>
<path d="M1432 1195 c0 -236 3 -439 7 -449 7 -18 4 831 -3 864 -2 8 -4 -178
-4 -415z"/>
<path d="M830 1489 c249 -180 386 -249 524 -265 52 -6 56 -5 56 14 0 32 -47
80 -111 112 -46 24 -439 164 -524 187 -11 4 14 -18 55 -48z"/>
<path d="M1905 1283 c-165 -15 -363 -57 -408 -87 -59 -41 -49 -49 54 -43 52 3
103 7 114 10 54 15 179 59 255 91 86 36 85 38 -15 29z"/>
<path d="M935 1054 c-33 -2 -89 -7 -125 -10 l-65 -7 55 -13 c194 -47 396 -84
463 -84 46 0 133 25 143 42 11 17 -19 36 -81 53 -60 16 -274 26 -390 19z"/>
<path d="M1756 494 c-11 -11 -16 -34 -16 -78 0 -70 17 -96 62 -96 41 0 58 29
58 98 0 69 -15 92 -60 92 -16 0 -36 -7 -44 -16z"/>
</g>
</svg>
